<svg width="86" height="18" viewBox="0 0 86 18" fill="none" xmlns="http://www.w3.org/2000/svg">
<path d="M5.4 17.288C4.328 17.288 3.512 17.016 2.952 16.472C2.392 15.928 2.112 15.144 2.112 14.12V8.072H0.192V5.408H2.112V2.24H5.184V5.408H7.536V8.072H5.184V13.304C5.184 13.672 5.28 13.976 5.472 14.216C5.664 14.456 5.92 14.576 6.24 14.576C6.72 14.576 7.072 14.464 7.296 14.24L7.944 16.544C7.384 17.04 6.536 17.288 5.4 17.288ZM19.4614 15.536C18.3414 16.704 16.8534 17.288 14.9974 17.288C13.1414 17.288 11.6534 16.704 10.5334 15.536C9.42938 14.352 8.87738 12.904 8.87738 11.192C8.87738 9.48 9.42938 8.04 10.5334 6.872C11.6534 5.704 13.1414 5.12 14.9974 5.12C16.8534 5.12 18.3414 5.704 19.4614 6.872C20.5814 8.04 21.1414 9.48 21.1414 11.192C21.1414 12.904 20.5814 14.352 19.4614 15.536ZM12.8374 13.616C13.3654 14.256 14.0854 14.576 14.9974 14.576C15.9094 14.576 16.6294 14.256 17.1574 13.616C17.7014 12.96 17.9734 12.152 17.9734 11.192C17.9734 10.248 17.7014 9.456 17.1574 8.816C16.6294 8.16 15.9094 7.832 14.9974 7.832C14.0854 7.832 13.3654 8.16 12.8374 8.816C12.3094 9.456 12.0454 10.248 12.0454 11.192C12.0454 12.152 12.3094 12.96 12.8374 13.616ZM34.2746 17H31.2266V15.536C30.1866 16.704 28.8266 17.288 27.1466 17.288C25.8986 17.288 24.9626 16.968 24.3386 16.328C23.7146 15.688 23.4026 14.792 23.4026 13.64V5.408H26.4506V12.44C26.4506 13.864 27.1626 14.576 28.5866 14.576C29.6586 14.576 30.5386 14.136 31.2266 13.256V5.408H34.2746V17ZM40.3491 17H37.3011V5.408H40.3491V6.992C40.7811 6.448 41.3331 6 42.0051 5.648C42.6771 5.296 43.3571 5.12 44.0451 5.12V8.096C43.8371 8.048 43.5571 8.024 43.2051 8.024C42.6931 8.024 42.1491 8.152 41.5731 8.408C40.9971 8.664 40.5891 8.976 40.3491 9.344V17Z" fill="#0062D6"/>
<path d="M56.8455 17H53.7975V9.944C53.7975 9.176 53.6135 8.632 53.2455 8.312C52.8775 7.992 52.3415 7.832 51.6375 7.832C50.5655 7.832 49.6855 8.288 48.9975 9.2V17H45.9495V0.991999H48.9975V6.92C49.4135 6.424 49.9735 6 50.6775 5.648C51.3975 5.296 52.1975 5.12 53.0775 5.12C54.3255 5.12 55.2615 5.44 55.8855 6.08C56.5255 6.72 56.8455 7.616 56.8455 8.768V17ZM70.7434 17H67.6954V15.536C66.6554 16.704 65.2954 17.288 63.6154 17.288C62.3674 17.288 61.4314 16.968 60.8074 16.328C60.1834 15.688 59.8714 14.792 59.8714 13.64V5.408H62.9194V12.44C62.9194 13.864 63.6314 14.576 65.0554 14.576C66.1274 14.576 67.0074 14.136 67.6954 13.256V5.408H70.7434V17ZM76.8178 13.28C77.0738 13.648 77.4498 13.96 77.9458 14.216C78.4418 14.456 78.9378 14.576 79.4338 14.576C80.3138 14.576 81.0258 14.272 81.5698 13.664C82.1138 13.04 82.3858 12.224 82.3858 11.216C82.3858 10.208 82.1138 9.392 81.5698 8.768C81.0258 8.144 80.3138 7.832 79.4338 7.832C78.9378 7.832 78.4418 7.96 77.9458 8.216C77.4498 8.472 77.0738 8.792 76.8178 9.176V13.28ZM76.8178 17H73.7698V0.991999H76.8178V6.896C77.7298 5.712 78.9218 5.12 80.3938 5.12C81.8978 5.12 83.1298 5.672 84.0898 6.776C85.0498 7.88 85.5298 9.36 85.5298 11.216C85.5298 13.104 85.0498 14.592 84.0898 15.68C83.1298 16.752 81.8978 17.288 80.3938 17.288C78.9538 17.288 77.7618 16.696 76.8178 15.512V17Z" fill="#171F29"/>
</svg>
