<svg width="20" height="20" viewBox="0 0 20 20" fill="none" xmlns="http://www.w3.org/2000/svg">
<path fill-rule="evenodd" clip-rule="evenodd" d="M11 3C11 4.65685 9.65685 6 8 6C6.69378 6 5.58254 5.16519 5.17071 4H0V2H5.17071C5.58254 0.834808 6.69378 0 8 0C9.65685 0 11 1.34315 11 3ZM9 3C9 3.55228 8.55228 4 8 4C7.44772 4 7 3.55228 7 3C7 2.44772 7.44772 2 8 2C8.55228 2 9 2.44772 9 3Z" fill="#0062D6"/>
<path d="M13 2H20V4H13V2Z" fill="#0062D6"/>
<path fill-rule="evenodd" clip-rule="evenodd" d="M13 13C11.6938 13 10.5825 12.1652 10.1707 11H0V9H10.1707C10.5825 7.83481 11.6938 7 13 7C14.6569 7 16 8.34315 16 10C16 11.6569 14.6569 13 13 13ZM13 11C13.5523 11 14 10.5523 14 10C14 9.44772 13.5523 9 13 9C12.4477 9 12 9.44772 12 10C12 10.5523 12.4477 11 13 11Z" fill="#0062D6"/>
<path fill-rule="evenodd" clip-rule="evenodd" d="M2.17071 18C2.58254 19.1652 3.69378 20 5 20C6.65685 20 8 18.6569 8 17C8 15.3431 6.65685 14 5 14C3.69378 14 2.58254 14.8348 2.17071 16H0V18H2.17071ZM6 17C6 17.5523 5.55228 18 5 18C4.44772 18 4 17.5523 4 17C4 16.4477 4.44772 16 5 16C5.55228 16 6 16.4477 6 17Z" fill="#0062D6"/>
<path d="M20 9H18V11H20V9Z" fill="#0062D6"/>
<path d="M10 16H20V18H10V16Z" fill="#0062D6"/>
</svg>
